<svg xmlns="http://www.w3.org/2000/svg" xmlns:xlink="http://www.w3.org/1999/xlink" width="250" zoomAndPan="magnify" viewBox="0 0 375 112.499997" height="50" preserveAspectRatio="xMidYMid meet" version="1.0"><defs><g/><clipPath id="aaf86dedd5"><path d="M 46 7.847656 L 111 7.847656 L 111 82 L 46 82 Z M 46 7.847656 " clip-rule="nonzero"/></clipPath><clipPath id="17fce046ac"><path d="M 6.507812 55 L 125 55 L 125 103 L 6.507812 103 Z M 6.507812 55 " clip-rule="nonzero"/></clipPath><clipPath id="036de4082f"><path d="M 229 10.578125 L 243 10.578125 L 243 31.839844 L 229 31.839844 Z M 229 10.578125 " clip-rule="nonzero"/></clipPath><clipPath id="4333478b02"><path d="M 219.199219 11 L 230 11 L 230 30 L 219.199219 30 Z M 219.199219 11 " clip-rule="nonzero"/></clipPath><clipPath id="2f5ef35fc8"><path d="M 221.601562 11.996094 C 221.378906 13.117188 221.9375 14.269531 222.742188 15.074219 C 223.546875 15.878906 224.574219 16.414062 225.558594 16.988281 C 226.539062 17.5625 227.523438 18.214844 228.140625 19.175781 C 228.679688 20.007812 228.898438 21.003906 229.011719 21.988281 C 229.148438 23.179688 229.128906 24.433594 228.75 25.558594 C 228.472656 24.882812 228.113281 24.234375 227.703125 23.628906 C 226.898438 22.4375 225.90625 21.382812 224.921875 20.339844 C 223.769531 19.117188 222.621094 17.894531 221.46875 16.671875 C 222.660156 18.90625 224.507812 20.707031 226.070312 22.703125 C 227.632812 24.695312 228.964844 27.078125 228.816406 29.609375 C 228.703125 28.3125 227.652344 27.289062 226.511719 26.660156 C 225.375 26.035156 224.097656 25.6875 222.972656 25.035156 C 220.847656 23.789062 219.421875 21.433594 219.308594 18.980469 C 219.199219 16.496094 220.332031 14.136719 221.601562 11.996094 Z M 221.601562 11.996094 " clip-rule="nonzero"/></clipPath></defs><path fill="#fea116" d="M 81.078125 62.832031 C 81.550781 62.910156 82.027344 63 82.492188 63.109375 C 84.011719 63.433594 85.496094 63.882812 86.929688 64.453125 C 87.695312 63.378906 88.570312 62.390625 89.550781 61.492188 C 90.078125 61.011719 90.632812 60.554688 91.21875 60.136719 C 89.558594 59.246094 87.5625 58.96875 85.601562 59.496094 C 83.652344 60.019531 82.078125 61.246094 81.078125 62.832031 Z M 81.078125 62.832031 " fill-opacity="1" fill-rule="nonzero"/><path fill="#fea116" d="M 95.210938 57.9375 C 95.910156 57.652344 96.628906 57.410156 97.371094 57.210938 C 97.734375 57.113281 98.09375 57.03125 98.453125 56.957031 C 98.363281 56.851562 98.265625 56.753906 98.160156 56.660156 C 94.554688 52.964844 89.113281 51.269531 83.78125 52.695312 C 78.894531 54.003906 75.234375 57.632812 73.667969 62.082031 C 73.601562 62.257812 73.546875 62.445312 73.488281 62.628906 C 74.558594 62.511719 75.625 62.457031 76.683594 62.472656 C 76.894531 61.933594 77.152344 61.421875 77.453125 60.9375 C 78.972656 58.371094 81.445312 56.378906 84.542969 55.546875 C 87.992188 54.621094 91.5 55.332031 94.242188 57.203125 C 94.578125 57.429688 94.90625 57.671875 95.210938 57.9375 Z M 95.210938 57.9375 " fill-opacity="1" fill-rule="nonzero"/><path fill="#fea116" d="M 83.421875 74.597656 C 81.585938 73.8125 79.617188 73.332031 77.582031 73.222656 C 76.5 73.152344 75.394531 73.1875 74.285156 73.335938 C 73.527344 73.433594 72.761719 73.582031 72.003906 73.785156 C 71.40625 73.945312 70.824219 74.136719 70.261719 74.351562 C 66.011719 75.976562 62.703125 79.136719 60.804688 83.007812 C 65.683594 82.78125 71.277344 82.042969 77.058594 80.847656 C 79.199219 80.410156 81.402344 79.894531 83.613281 79.324219 L 83.796875 79.273438 C 84.1875 79.175781 84.542969 79.082031 84.890625 78.988281 L 84.925781 78.980469 C 85.855469 78.730469 86.78125 78.476562 87.695312 78.203125 C 87.992188 78.121094 88.285156 78.035156 88.566406 77.949219 C 88.253906 77.652344 87.921875 77.371094 87.589844 77.101562 C 86.320312 76.078125 84.917969 75.234375 83.421875 74.597656 Z M 83.421875 74.597656 " fill-opacity="1" fill-rule="nonzero"/><path fill="#fea116" d="M 92.703125 72.753906 C 92.199219 72.296875 91.667969 71.859375 91.128906 71.453125 C 90.324219 70.851562 89.484375 70.292969 88.613281 69.792969 C 87.433594 69.117188 86.195312 68.53125 84.910156 68.054688 C 83.292969 67.460938 81.601562 67.03125 79.878906 66.78125 C 78.539062 66.59375 77.171875 66.523438 75.792969 66.5625 C 74.8125 66.597656 73.828125 66.6875 72.839844 66.839844 C 71.988281 66.976562 71.140625 67.152344 70.289062 67.378906 C 69.777344 67.519531 69.269531 67.675781 68.769531 67.84375 C 61.472656 70.3125 56.050781 76.027344 53.675781 82.914062 C 54.28125 82.972656 54.957031 83.007812 55.742188 83.039062 C 55.933594 83.050781 56.125 83.054688 56.324219 83.058594 C 58.492188 77.355469 63.039062 72.648438 69.074219 70.429688 C 69.683594 70.203125 70.308594 70.007812 70.945312 69.835938 C 71.644531 69.648438 72.339844 69.5 73.035156 69.382812 C 74.019531 69.222656 75.003906 69.128906 75.984375 69.101562 C 77.433594 69.0625 78.875 69.171875 80.277344 69.425781 C 81.578125 69.652344 82.84375 70 84.074219 70.453125 C 85.382812 70.941406 86.644531 71.554688 87.832031 72.289062 C 88.742188 72.84375 89.613281 73.460938 90.429688 74.144531 C 90.457031 74.132812 90.488281 74.125 90.511719 74.109375 C 90.507812 74.140625 90.507812 74.167969 90.503906 74.203125 C 91.367188 74.925781 92.179688 75.722656 92.917969 76.585938 C 93.144531 76.507812 93.378906 76.433594 93.605469 76.359375 C 93.859375 76.277344 94.082031 76.195312 94.300781 76.113281 C 94.714844 75.976562 95.109375 75.835938 95.488281 75.699219 C 95.191406 75.332031 94.890625 74.96875 94.570312 74.617188 C 93.988281 73.960938 93.359375 73.339844 92.703125 72.753906 Z M 92.703125 72.753906 " fill-opacity="1" fill-rule="nonzero"/><g clip-path="url(#aaf86dedd5)"><path fill="#fea116" d="M 62.644531 66.121094 C 64.628906 64.996094 66.773438 64.105469 69.066406 63.476562 C 70.378906 56.582031 75.5 50.683594 82.722656 48.746094 C 89.257812 46.996094 95.941406 48.921875 100.539062 53.257812 L 110.949219 33.953125 C 110.226562 32.523438 109.414062 31.148438 108.527344 29.832031 C 105.871094 25.921875 100.433594 20.308594 95.765625 19.152344 C 95.765625 19.152344 96.441406 19.820312 96.632812 20.015625 C 98.84375 22.230469 100.859375 25.105469 100.335938 28.394531 C 99.769531 31.957031 96.464844 34.882812 92.863281 35.019531 C 89.90625 35.132812 87.050781 33.511719 85.21875 31.1875 C 83.386719 28.863281 82.492188 25.914062 82.191406 22.972656 C 81.660156 17.726562 82.964844 12.308594 85.828125 7.878906 C 80.984375 9.253906 76.050781 10.777344 72.054688 13.84375 C 69.140625 16.082031 66.753906 19.316406 66.003906 22.964844 C 65.269531 26.546875 67.796875 29.058594 68.714844 32.429688 C 69.882812 36.714844 67.171875 42.46875 62.972656 37.734375 C 59.476562 33.789062 55.074219 31.027344 48.65625 31.90625 C 54.0625 34.273438 58.644531 46.691406 51.417969 56.140625 C 48.46875 60 46.816406 64.984375 46.917969 69.996094 C 47.003906 74.148438 48.042969 77.933594 50.007812 81.042969 C 50.835938 78.765625 51.957031 76.609375 53.335938 74.617188 C 55.722656 71.175781 58.882812 68.25 62.644531 66.121094 Z M 62.644531 66.121094 " fill-opacity="1" fill-rule="nonzero"/></g><path fill="#fea116" d="M 115.144531 47.246094 L 108.070312 57.488281 C 109.59375 57.984375 111.039062 58.667969 112.382812 59.523438 C 113.199219 60.042969 113.976562 60.632812 114.695312 61.28125 C 115.703125 56.699219 115.816406 51.902344 115.144531 47.246094 Z M 115.144531 47.246094 " fill-opacity="1" fill-rule="nonzero"/><path fill="#fea116" d="M 105.488281 61.019531 C 104.03125 60.6875 102.511719 60.574219 100.96875 60.710938 C 100.125 60.78125 99.277344 60.933594 98.429688 61.160156 C 98.269531 61.203125 98.113281 61.246094 97.964844 61.296875 C 96.621094 61.699219 95.375 62.289062 94.242188 63.023438 C 92.863281 63.90625 91.671875 65.007812 90.675781 66.265625 C 91.535156 66.761719 92.363281 67.300781 93.167969 67.882812 C 93.773438 67.140625 94.472656 66.480469 95.25 65.90625 C 96.363281 65.085938 97.636719 64.449219 99.042969 64.058594 C 99.09375 64.035156 99.140625 64.023438 99.191406 64.011719 C 100.121094 63.761719 101.050781 63.632812 101.972656 63.609375 C 103.457031 63.574219 104.90625 63.820312 106.257812 64.3125 C 108.382812 65.082031 110.265625 66.445312 111.648438 68.269531 L 112.640625 67.644531 L 112.644531 67.644531 C 112.925781 67.023438 113.171875 66.394531 113.410156 65.753906 C 111.339844 63.378906 108.554688 61.714844 105.488281 61.019531 Z M 105.488281 61.019531 " fill-opacity="1" fill-rule="nonzero"/><path fill="#fea116" d="M 102.339844 67.695312 C 101.652344 67.6875 100.949219 67.773438 100.25 67.960938 C 99.933594 68.042969 99.632812 68.144531 99.339844 68.265625 C 98.125 68.761719 97.085938 69.542969 96.292969 70.507812 C 96.914062 71.109375 97.503906 71.742188 98.070312 72.410156 C 98.5625 72.984375 99.035156 73.578125 99.472656 74.191406 C 99.652344 74.125 99.800781 74.070312 99.882812 74.035156 C 101.324219 73.457031 102.785156 72.832031 104.214844 72.171875 C 105.515625 71.578125 106.800781 70.945312 108.03125 70.296875 C 107.542969 69.738281 106.976562 69.261719 106.351562 68.871094 C 105.164062 68.132812 103.777344 67.710938 102.339844 67.695312 Z M 102.339844 67.695312 " fill-opacity="1" fill-rule="nonzero"/><g clip-path="url(#17fce046ac)"><path fill="#ffffff" d="M 117.441406 56.804688 C 117.34375 57.945312 117.1875 59.082031 116.984375 60.195312 C 119.855469 60.878906 120.804688 61.804688 120.890625 62.132812 C 120.980469 62.46875 120.621094 63.75 118.457031 65.796875 C 117.652344 66.554688 116.601562 67.417969 115.226562 68.375 C 114.496094 68.890625 113.675781 69.425781 112.746094 69.992188 C 112.714844 70.007812 112.683594 70.023438 112.65625 70.046875 C 111.5625 70.710938 110.40625 71.367188 109.179688 72.007812 C 107.875 72.695312 106.507812 73.375 105.066406 74.035156 C 103.648438 74.683594 102.171875 75.316406 100.636719 75.933594 C 99.996094 76.191406 99.34375 76.441406 98.6875 76.703125 C 98.046875 76.945312 97.394531 77.183594 96.738281 77.414062 C 96.164062 77.632812 95.582031 77.835938 94.988281 78.039062 C 94.75 78.125 94.503906 78.210938 94.257812 78.292969 C 93.222656 78.640625 92.171875 78.984375 91.101562 79.3125 C 90.78125 79.421875 90.453125 79.523438 90.125 79.617188 C 89.511719 79.804688 88.898438 79.988281 88.277344 80.164062 C 87.347656 80.4375 86.402344 80.699219 85.453125 80.953125 C 85.078125 81.054688 84.703125 81.15625 84.328125 81.25 L 84.121094 81.304688 C 81.878906 81.882812 79.660156 82.402344 77.476562 82.851562 C 71.179688 84.152344 65.1875 84.917969 59.9375 85.082031 C 58.734375 85.128906 57.566406 85.132812 56.441406 85.109375 C 56.171875 85.101562 55.910156 85.097656 55.660156 85.085938 C 54.71875 85.046875 53.859375 84.996094 53.078125 84.917969 C 52.265625 84.84375 51.535156 84.746094 50.871094 84.640625 C 50.457031 84.574219 50.074219 84.5 49.722656 84.425781 C 49.472656 84.371094 49.246094 84.3125 49.027344 84.257812 C 46.347656 83.582031 45.445312 82.691406 45.359375 82.371094 C 45.335938 82.273438 45.351562 82.078125 45.445312 81.796875 C 45.617188 81.308594 46.039062 80.566406 46.921875 79.59375 C 46.417969 78.46875 46 77.28125 45.6875 76.03125 L 11.914062 55.429688 C 10.632812 54.660156 8.972656 55.089844 8.230469 56.382812 L 7.234375 58.09375 C 6.492188 59.378906 6.953125 61.035156 8.257812 61.757812 L 42.355469 80.367188 C 41.929688 81.386719 41.828125 82.351562 42.070312 83.253906 C 42.148438 83.542969 42.253906 83.816406 42.402344 84.082031 C 42.558594 84.3125 42.722656 84.550781 42.886719 84.78125 C 44.476562 87.03125 46.285156 89.109375 48.269531 90.988281 C 49.65625 92.296875 51.125 93.511719 52.671875 94.621094 C 53.65625 95.328125 54.671875 96.003906 55.71875 96.625 C 57.503906 97.699219 59.371094 98.644531 61.304688 99.460938 C 70.109375 103.167969 80.273438 104.121094 90.394531 101.527344 C 90.574219 101.488281 90.753906 101.441406 90.929688 101.390625 C 92.773438 100.898438 94.558594 100.300781 96.285156 99.605469 C 97.414062 99.152344 98.507812 98.664062 99.582031 98.136719 C 101.273438 97.292969 102.902344 96.363281 104.449219 95.34375 C 105.242188 94.828125 106.011719 94.28125 106.761719 93.714844 C 113.164062 88.910156 118.105469 82.5625 121.101562 75.429688 C 122.765625 71.476562 123.839844 67.289062 124.238281 62.984375 C 124.269531 62.703125 124.289062 62.414062 124.304688 62.132812 C 124.300781 61.832031 124.261719 61.539062 124.183594 61.25 C 123.613281 59.128906 121.199219 57.648438 117.441406 56.804688 Z M 117.441406 56.804688 " fill-opacity="1" fill-rule="nonzero"/></g><path fill="#ffffff" d="M 103.097656 56.226562 L 113.175781 39.191406 L 128.367188 13.546875 C 128.589844 13.167969 128.460938 12.6875 128.085938 12.476562 L 126.300781 11.46875 C 125.925781 11.25 125.449219 11.394531 125.238281 11.773438 L 112.03125 36.25 L 102.011719 54.816406 C 102.382812 55.253906 102.734375 55.710938 103.0625 56.179688 C 103.074219 56.195312 103.085938 56.207031 103.097656 56.226562 Z M 103.097656 56.226562 " fill-opacity="1" fill-rule="nonzero"/><path fill="#ffffff" d="M 133.367188 15.882812 L 131.660156 14.753906 C 131.300781 14.511719 130.8125 14.613281 130.578125 14.980469 L 113.878906 41.351562 L 104.175781 56.671875 C 104.777344 56.734375 105.375 56.824219 105.964844 56.945312 L 114.636719 44.394531 L 114.632812 44.386719 L 133.578125 16.960938 C 133.820312 16.605469 133.726562 16.117188 133.367188 15.882812 Z M 133.367188 15.882812 " fill-opacity="1" fill-rule="nonzero"/><g fill="#fea116" fill-opacity="1"><g transform="translate(128.462916, 83.478897)"><g><path d="M 28.984375 -42.375 C 26.941406 -38.695312 25.050781 -34.921875 23.3125 -31.046875 C 21.570312 -27.171875 19.878906 -23.296875 18.234375 -19.421875 C 22.171875 -20.398438 26.03125 -22.054688 29.8125 -24.390625 C 33.59375 -26.722656 36.894531 -29.382812 39.71875 -32.375 C 42.539062 -35.363281 44.625 -38.4375 45.96875 -41.59375 C 47.320312 -44.75 47.539062 -47.640625 46.625 -50.265625 C 45.96875 -52.234375 44.6875 -53.660156 42.78125 -54.546875 C 40.875 -55.441406 38.601562 -55.890625 35.96875 -55.890625 C 33.28125 -55.890625 30.375 -55.476562 27.25 -54.65625 C 24.132812 -53.832031 21.0625 -52.679688 18.03125 -51.203125 C 15.007812 -49.722656 12.300781 -48.015625 9.90625 -46.078125 C 7.507812 -44.140625 5.648438 -42.035156 4.328125 -39.765625 C 3.015625 -37.503906 2.472656 -35.15625 2.703125 -32.71875 C 2.941406 -30.289062 4.207031 -27.894531 6.5 -25.53125 C 7.09375 -25 7.226562 -24.570312 6.90625 -24.25 C 6.769531 -24.113281 6.601562 -24.046875 6.40625 -24.046875 C 6.070312 -24.046875 5.773438 -24.175781 5.515625 -24.4375 C 2.753906 -27.332031 1.078125 -30.222656 0.484375 -33.109375 C -0.0976562 -36.003906 0.148438 -38.816406 1.234375 -41.546875 C 2.316406 -44.273438 4.023438 -46.820312 6.359375 -49.1875 C 8.691406 -51.550781 11.398438 -53.617188 14.484375 -55.390625 C 17.578125 -57.160156 20.863281 -58.539062 24.34375 -59.53125 C 27.820312 -60.519531 31.207031 -61.015625 34.5 -61.015625 C 36.726562 -61.015625 38.859375 -60.78125 40.890625 -60.3125 C 42.929688 -59.851562 44.773438 -59.066406 46.421875 -57.953125 C 49.515625 -55.984375 51.46875 -53.664062 52.28125 -51 C 53.101562 -48.34375 53.035156 -45.519531 52.078125 -42.53125 C 51.128906 -39.539062 49.519531 -36.582031 47.25 -33.65625 C 44.988281 -30.726562 42.265625 -27.984375 39.078125 -25.421875 C 35.890625 -22.859375 32.503906 -20.675781 28.921875 -18.875 C 25.347656 -17.070312 21.753906 -15.804688 18.140625 -15.078125 C 19.847656 -13.234375 21.6875 -11.488281 23.65625 -9.84375 C 25.625 -8.207031 27.675781 -6.863281 29.8125 -5.8125 C 31.945312 -4.757812 34.035156 -4.234375 36.078125 -4.234375 C 37.910156 -4.234375 39.695312 -4.773438 41.4375 -5.859375 C 43.1875 -6.941406 44.78125 -8.703125 46.21875 -11.140625 C 46.414062 -11.460938 46.710938 -11.625 47.109375 -11.625 C 47.304688 -11.625 47.472656 -11.5625 47.609375 -11.4375 C 47.867188 -11.363281 48.03125 -11.179688 48.09375 -10.890625 C 48.164062 -10.597656 48.132812 -10.316406 48 -10.046875 C 45.894531 -6.628906 43.660156 -4.195312 41.296875 -2.75 C 38.929688 -1.3125 36.535156 -0.59375 34.109375 -0.59375 C 31.734375 -0.59375 29.378906 -1.132812 27.046875 -2.21875 C 24.722656 -3.300781 22.523438 -4.679688 20.453125 -6.359375 C 18.378906 -8.035156 16.554688 -9.726562 14.984375 -11.4375 C 14.066406 -9 13.175781 -6.613281 12.3125 -4.28125 C 11.457031 -1.945312 10.785156 0.101562 10.296875 1.875 C 9.804688 3.644531 9.59375 4.925781 9.65625 5.71875 C 9.71875 6.375 9.863281 6.75 10.09375 6.84375 C 10.332031 6.945312 10.566406 6.984375 10.796875 6.953125 C 11.023438 6.921875 11.140625 7.066406 11.140625 7.390625 C 11.265625 7.847656 10.9375 8.078125 10.15625 8.078125 C 9.363281 8.078125 8.34375 7.648438 7.09375 6.796875 C 5.84375 5.941406 5.15625 4.628906 5.03125 2.859375 C 4.957031 1.410156 5.53125 -1.019531 6.75 -4.4375 C 7.96875 -7.851562 9.492188 -11.664062 11.328125 -15.875 C 9.953125 -17.84375 9.332031 -18.988281 9.46875 -19.3125 C 9.59375 -19.707031 9.953125 -20.179688 10.546875 -20.734375 C 11.140625 -21.296875 11.664062 -21.578125 12.125 -21.578125 C 12.320312 -21.578125 12.484375 -21.546875 12.609375 -21.484375 L 13.40625 -20.40625 C 15.3125 -24.476562 17.234375 -28.421875 19.171875 -32.234375 C 21.109375 -36.046875 22.765625 -39.234375 24.140625 -41.796875 L 25.03125 -43.5625 C 25.882812 -44.8125 26.65625 -45.734375 27.34375 -46.328125 C 28.039062 -46.921875 29.175781 -47.21875 30.75 -47.21875 C 31.28125 -47.144531 31.578125 -47.054688 31.640625 -46.953125 C 31.703125 -46.859375 31.570312 -46.613281 31.25 -46.21875 C 30.394531 -45.039062 29.640625 -43.757812 28.984375 -42.375 Z M 28.984375 -42.375 "/></g></g></g><g fill="#fea116" fill-opacity="1"><g transform="translate(173.801395, 83.478897)"><g><path d="M 6.40625 0.203125 C 4.363281 0.203125 2.851562 -0.488281 1.875 -1.875 C 0.425781 -3.644531 -0.28125 -5.628906 -0.25 -7.828125 C -0.21875 -10.035156 0.289062 -12.238281 1.28125 -14.4375 C 2.269531 -16.632812 3.519531 -18.65625 5.03125 -20.5 C 6.539062 -22.34375 8.050781 -23.753906 9.5625 -24.734375 C 10.675781 -25.460938 11.828125 -25.828125 13.015625 -25.828125 C 14.523438 -25.828125 15.769531 -25.234375 16.75 -24.046875 C 17.738281 -22.867188 18.066406 -21.488281 17.734375 -19.90625 C 17.671875 -19.582031 17.585938 -19.269531 17.484375 -18.96875 C 17.390625 -18.675781 17.28125 -18.398438 17.15625 -18.140625 L 17.15625 -17.9375 C 16.757812 -16.945312 16.082031 -15.8125 15.125 -14.53125 C 14.175781 -13.25 13.109375 -12.148438 11.921875 -11.234375 C 10.742188 -10.316406 9.59375 -9.820312 8.46875 -9.75 C 7.15625 -9.75 6.207031 -10.144531 5.625 -10.9375 C 4.769531 -8.90625 4.289062 -7.113281 4.1875 -5.5625 C 4.09375 -4.019531 4.765625 -3.1875 6.203125 -3.0625 C 7.984375 -3.0625 9.804688 -3.648438 11.671875 -4.828125 C 13.546875 -6.015625 15.351562 -7.476562 17.09375 -9.21875 C 18.84375 -10.957031 20.4375 -12.742188 21.875 -14.578125 C 23.320312 -16.421875 24.539062 -18.035156 25.53125 -19.421875 C 25.53125 -19.484375 25.59375 -19.515625 25.71875 -19.515625 C 25.914062 -19.515625 26.128906 -19.429688 26.359375 -19.265625 C 26.585938 -19.097656 26.703125 -18.820312 26.703125 -18.4375 C 26.441406 -18.039062 26.066406 -17.476562 25.578125 -16.75 C 25.085938 -16.03125 24.515625 -15.210938 23.859375 -14.296875 C 22.929688 -13.046875 21.828125 -11.597656 20.546875 -9.953125 C 19.265625 -8.304688 17.867188 -6.710938 16.359375 -5.171875 C 14.847656 -3.628906 13.253906 -2.347656 11.578125 -1.328125 C 9.898438 -0.304688 8.175781 0.203125 6.40625 0.203125 Z M 14.484375 -21.875 C 13.898438 -21.875 13.128906 -21.429688 12.171875 -20.546875 C 11.222656 -19.660156 10.238281 -18.523438 9.21875 -17.140625 C 8.195312 -15.765625 7.257812 -14.289062 6.40625 -12.71875 C 6.601562 -12.257812 6.929688 -12.03125 7.390625 -12.03125 C 8.046875 -12.03125 8.898438 -12.421875 9.953125 -13.203125 C 11.003906 -13.992188 12.039062 -14.960938 13.0625 -16.109375 C 14.082031 -17.265625 14.820312 -18.429688 15.28125 -19.609375 C 15.476562 -20.460938 15.507812 -21.085938 15.375 -21.484375 C 15.175781 -21.742188 14.878906 -21.875 14.484375 -21.875 Z M 14.484375 -21.875 "/></g></g></g><g fill="#fea116" fill-opacity="1"><g transform="translate(193.218094, 83.478897)"><g><path d="M -2.859375 -4.34375 C -3.117188 -5.257812 -3.117188 -5.71875 -2.859375 -5.71875 C -2.722656 -5.71875 -2.59375 -5.648438 -2.46875 -5.515625 C -2.332031 -5.253906 -1.835938 -5.023438 -0.984375 -4.828125 C -0.128906 -4.628906 0.820312 -4.53125 1.875 -4.53125 C 3.25 -4.53125 4.578125 -4.773438 5.859375 -5.265625 C 7.140625 -5.765625 7.847656 -6.738281 7.984375 -8.1875 C 8.117188 -8.90625 7.9375 -9.851562 7.4375 -11.03125 C 6.945312 -12.21875 6.421875 -13.535156 5.859375 -14.984375 C 5.304688 -16.429688 4.929688 -17.957031 4.734375 -19.5625 C 4.535156 -21.175781 4.796875 -22.851562 5.515625 -24.59375 C 6.242188 -26.332031 7.625 -28.023438 9.65625 -29.671875 C 10.382812 -30.328125 11.09375 -30.769531 11.78125 -31 C 12.46875 -31.226562 13.140625 -31.34375 13.796875 -31.34375 C 15.179688 -31.34375 16.28125 -30.945312 17.09375 -30.15625 C 17.914062 -29.375 18.128906 -28.847656 17.734375 -28.578125 C 15.835938 -27.597656 14 -26.367188 12.21875 -24.890625 C 10.445312 -23.410156 9.195312 -21.703125 8.46875 -19.765625 C 7.75 -17.828125 7.945312 -15.675781 9.0625 -13.3125 C 9.789062 -11.988281 10.414062 -10.539062 10.9375 -8.96875 C 11.46875 -7.394531 11.5 -5.882812 11.03125 -4.4375 C 10.707031 -3.25 9.769531 -2.257812 8.21875 -1.46875 C 6.675781 -0.6875 5.050781 -0.296875 3.34375 -0.296875 C 1.96875 -0.296875 0.707031 -0.609375 -0.4375 -1.234375 C -1.59375 -1.859375 -2.398438 -2.894531 -2.859375 -4.34375 Z M -2.859375 -4.34375 "/></g></g></g><g fill="#fea116" fill-opacity="1"><g transform="translate(207.016762, 83.478897)"><g><path d="M -2.953125 -33.21875 C -3.410156 -33.21875 -3.671875 -33.578125 -3.734375 -34.296875 C -3.804688 -35.023438 -3.582031 -35.421875 -3.0625 -35.484375 L 13.40625 -37.75 C 14.71875 -40.175781 15.914062 -42.191406 17 -43.796875 C 18.082031 -45.410156 18.953125 -46.351562 19.609375 -46.625 C 20.335938 -46.882812 20.992188 -47.015625 21.578125 -47.015625 C 23.023438 -47.015625 24.078125 -46.550781 24.734375 -45.625 C 25.390625 -44.707031 25.457031 -43.988281 24.9375 -43.46875 C 23.820312 -42.476562 22.609375 -40.929688 21.296875 -38.828125 C 23.265625 -39.023438 25.21875 -39.253906 27.15625 -39.515625 C 29.09375 -39.785156 30.984375 -40.050781 32.828125 -40.3125 C 33.546875 -40.375 33.921875 -40.023438 33.953125 -39.265625 C 33.984375 -38.515625 33.753906 -37.757812 33.265625 -37 C 32.773438 -36.25 32.066406 -35.804688 31.140625 -35.671875 C 29.109375 -35.546875 27.054688 -35.414062 24.984375 -35.28125 C 22.910156 -35.15625 20.828125 -35.023438 18.734375 -34.890625 C 16.953125 -31.929688 15.109375 -28.613281 13.203125 -24.9375 C 11.296875 -21.257812 9.488281 -17.476562 7.78125 -13.59375 C 6.070312 -9.71875 4.609375 -6.019531 3.390625 -2.5 C 2.179688 1.007812 1.410156 4.007812 1.078125 6.5 C -0.0976562 6.4375 -0.847656 5.863281 -1.171875 4.78125 C -1.503906 3.695312 -1.601562 2.476562 -1.46875 1.125 C -1.34375 -0.21875 -1.179688 -1.25 -0.984375 -1.96875 C -0.585938 -3.675781 0.0507812 -5.8125 0.9375 -8.375 C 1.820312 -10.9375 2.851562 -13.726562 4.03125 -16.75 C 5.21875 -19.78125 6.484375 -22.820312 7.828125 -25.875 C 9.179688 -28.925781 10.515625 -31.800781 11.828125 -34.5 C 9.398438 -34.363281 6.96875 -34.179688 4.53125 -33.953125 C 2.101562 -33.722656 -0.328125 -33.476562 -2.765625 -33.21875 Z M -2.953125 -33.21875 "/></g></g></g><g fill="#fea116" fill-opacity="1"><g transform="translate(217.562883, 83.478897)"><g><path d="M 0.6875 -5.515625 C 0.488281 -7.160156 0.632812 -8.984375 1.125 -10.984375 C 1.625 -12.992188 2.316406 -14.953125 3.203125 -16.859375 C 4.085938 -18.765625 4.957031 -20.375 5.8125 -21.6875 C 6.207031 -22.34375 6.617188 -22.832031 7.046875 -23.15625 C 7.472656 -23.488281 8.046875 -23.65625 8.765625 -23.65625 C 9.554688 -24.707031 10.5625 -25.660156 11.78125 -26.515625 C 13 -27.367188 14.265625 -27.796875 15.578125 -27.796875 C 16.359375 -27.796875 16.984375 -27.664062 17.453125 -27.40625 C 19.421875 -26.476562 20.582031 -24.945312 20.9375 -22.8125 C 21.300781 -20.675781 21.101562 -18.3125 20.34375 -15.71875 C 19.59375 -13.125 18.460938 -10.625 16.953125 -8.21875 C 15.441406 -5.820312 13.734375 -3.851562 11.828125 -2.3125 C 9.921875 -0.769531 8.046875 0 6.203125 0 C 4.566406 0 3.269531 -0.523438 2.3125 -1.578125 C 1.363281 -2.628906 0.820312 -3.941406 0.6875 -5.515625 Z M 7.1875 -11.234375 C 7.0625 -10.972656 6.816406 -10.398438 6.453125 -9.515625 C 6.085938 -8.628906 5.757812 -7.691406 5.46875 -6.703125 C 5.175781 -5.710938 5.0625 -4.859375 5.125 -4.140625 C 5.1875 -3.222656 5.582031 -2.765625 6.3125 -2.765625 C 7.09375 -2.765625 8.140625 -3.382812 9.453125 -4.625 C 10.773438 -5.875 12.109375 -7.453125 13.453125 -9.359375 C 14.796875 -11.265625 15.941406 -13.269531 16.890625 -15.375 C 17.847656 -17.476562 18.375 -19.398438 18.46875 -21.140625 C 18.570312 -22.878906 18.035156 -24.175781 16.859375 -25.03125 C 16.585938 -25.164062 16.351562 -25.28125 16.15625 -25.375 C 15.96875 -25.476562 15.707031 -25.53125 15.375 -25.53125 C 14.78125 -25.53125 14.140625 -25.316406 13.453125 -24.890625 C 12.765625 -24.460938 12.15625 -23.785156 11.625 -22.859375 C 12.351562 -22.597656 12.75 -22.269531 12.8125 -21.875 C 12.945312 -21.613281 12.878906 -21.332031 12.609375 -21.03125 C 12.347656 -20.738281 12.117188 -20.492188 11.921875 -20.296875 C 11.140625 -19.253906 10.300781 -17.8125 9.40625 -15.96875 C 8.519531 -14.125 7.78125 -12.546875 7.1875 -11.234375 Z M 7.1875 -11.234375 "/></g></g></g><g fill="#fea116" fill-opacity="1"><g transform="translate(238.162325, 83.478897)"><g/></g></g><g fill="#fea116" fill-opacity="1"><g transform="translate(249.989754, 83.478897)"><g><path d="M 28.984375 -42.375 C 26.941406 -38.695312 25.050781 -34.921875 23.3125 -31.046875 C 21.570312 -27.171875 19.878906 -23.296875 18.234375 -19.421875 C 22.171875 -20.398438 26.03125 -22.054688 29.8125 -24.390625 C 33.59375 -26.722656 36.894531 -29.382812 39.71875 -32.375 C 42.539062 -35.363281 44.625 -38.4375 45.96875 -41.59375 C 47.320312 -44.75 47.539062 -47.640625 46.625 -50.265625 C 45.96875 -52.234375 44.6875 -53.660156 42.78125 -54.546875 C 40.875 -55.441406 38.601562 -55.890625 35.96875 -55.890625 C 33.28125 -55.890625 30.375 -55.476562 27.25 -54.65625 C 24.132812 -53.832031 21.0625 -52.679688 18.03125 -51.203125 C 15.007812 -49.722656 12.300781 -48.015625 9.90625 -46.078125 C 7.507812 -44.140625 5.648438 -42.035156 4.328125 -39.765625 C 3.015625 -37.503906 2.472656 -35.15625 2.703125 -32.71875 C 2.941406 -30.289062 4.207031 -27.894531 6.5 -25.53125 C 7.09375 -25 7.226562 -24.570312 6.90625 -24.25 C 6.769531 -24.113281 6.601562 -24.046875 6.40625 -24.046875 C 6.070312 -24.046875 5.773438 -24.175781 5.515625 -24.4375 C 2.753906 -27.332031 1.078125 -30.222656 0.484375 -33.109375 C -0.0976562 -36.003906 0.148438 -38.816406 1.234375 -41.546875 C 2.316406 -44.273438 4.023438 -46.820312 6.359375 -49.1875 C 8.691406 -51.550781 11.398438 -53.617188 14.484375 -55.390625 C 17.578125 -57.160156 20.863281 -58.539062 24.34375 -59.53125 C 27.820312 -60.519531 31.207031 -61.015625 34.5 -61.015625 C 36.726562 -61.015625 38.859375 -60.78125 40.890625 -60.3125 C 42.929688 -59.851562 44.773438 -59.066406 46.421875 -57.953125 C 49.515625 -55.984375 51.46875 -53.664062 52.28125 -51 C 53.101562 -48.34375 53.035156 -45.519531 52.078125 -42.53125 C 51.128906 -39.539062 49.519531 -36.582031 47.25 -33.65625 C 44.988281 -30.726562 42.265625 -27.984375 39.078125 -25.421875 C 35.890625 -22.859375 32.503906 -20.675781 28.921875 -18.875 C 25.347656 -17.070312 21.753906 -15.804688 18.140625 -15.078125 C 19.847656 -13.234375 21.6875 -11.488281 23.65625 -9.84375 C 25.625 -8.207031 27.675781 -6.863281 29.8125 -5.8125 C 31.945312 -4.757812 34.035156 -4.234375 36.078125 -4.234375 C 37.910156 -4.234375 39.695312 -4.773438 41.4375 -5.859375 C 43.1875 -6.941406 44.78125 -8.703125 46.21875 -11.140625 C 46.414062 -11.460938 46.710938 -11.625 47.109375 -11.625 C 47.304688 -11.625 47.472656 -11.5625 47.609375 -11.4375 C 47.867188 -11.363281 48.03125 -11.179688 48.09375 -10.890625 C 48.164062 -10.597656 48.132812 -10.316406 48 -10.046875 C 45.894531 -6.628906 43.660156 -4.195312 41.296875 -2.75 C 38.929688 -1.3125 36.535156 -0.59375 34.109375 -0.59375 C 31.734375 -0.59375 29.378906 -1.132812 27.046875 -2.21875 C 24.722656 -3.300781 22.523438 -4.679688 20.453125 -6.359375 C 18.378906 -8.035156 16.554688 -9.726562 14.984375 -11.4375 C 14.066406 -9 13.175781 -6.613281 12.3125 -4.28125 C 11.457031 -1.945312 10.785156 0.101562 10.296875 1.875 C 9.804688 3.644531 9.59375 4.925781 9.65625 5.71875 C 9.71875 6.375 9.863281 6.75 10.09375 6.84375 C 10.332031 6.945312 10.566406 6.984375 10.796875 6.953125 C 11.023438 6.921875 11.140625 7.066406 11.140625 7.390625 C 11.265625 7.847656 10.9375 8.078125 10.15625 8.078125 C 9.363281 8.078125 8.34375 7.648438 7.09375 6.796875 C 5.84375 5.941406 5.15625 4.628906 5.03125 2.859375 C 4.957031 1.410156 5.53125 -1.019531 6.75 -4.4375 C 7.96875 -7.851562 9.492188 -11.664062 11.328125 -15.875 C 9.953125 -17.84375 9.332031 -18.988281 9.46875 -19.3125 C 9.59375 -19.707031 9.953125 -20.179688 10.546875 -20.734375 C 11.140625 -21.296875 11.664062 -21.578125 12.125 -21.578125 C 12.320312 -21.578125 12.484375 -21.546875 12.609375 -21.484375 L 13.40625 -20.40625 C 15.3125 -24.476562 17.234375 -28.421875 19.171875 -32.234375 C 21.109375 -36.046875 22.765625 -39.234375 24.140625 -41.796875 L 25.03125 -43.5625 C 25.882812 -44.8125 26.65625 -45.734375 27.34375 -46.328125 C 28.039062 -46.921875 29.175781 -47.21875 30.75 -47.21875 C 31.28125 -47.144531 31.578125 -47.054688 31.640625 -46.953125 C 31.703125 -46.859375 31.570312 -46.613281 31.25 -46.21875 C 30.394531 -45.039062 29.640625 -43.757812 28.984375 -42.375 Z M 28.984375 -42.375 "/></g></g></g><g fill="#fea116" fill-opacity="1"><g transform="translate(295.328233, 83.478897)"><g><path d="M 19.8125 -45.640625 C 20.53125 -45.640625 21.21875 -45.390625 21.875 -44.890625 C 22.53125 -44.398438 22.957031 -43.859375 23.15625 -43.265625 C 23.289062 -43.003906 23.273438 -42.742188 23.109375 -42.484375 C 22.941406 -42.222656 22.796875 -41.992188 22.671875 -41.796875 C 21.222656 -39.753906 19.804688 -37.695312 18.421875 -35.625 C 17.046875 -33.5625 15.632812 -31.476562 14.1875 -29.375 C 13.925781 -28.976562 13.765625 -28.78125 13.703125 -28.78125 C 13.566406 -28.78125 13.4375 -29.078125 13.3125 -29.671875 C 13.175781 -31.179688 13.382812 -32.890625 13.9375 -34.796875 C 14.5 -36.703125 15.222656 -38.554688 16.109375 -40.359375 C 17.003906 -42.171875 17.878906 -43.664062 18.734375 -44.84375 C 19.191406 -45.375 19.550781 -45.640625 19.8125 -45.640625 Z M 19.8125 -20.109375 C 20.269531 -20.109375 20.597656 -19.742188 20.796875 -19.015625 C 20.335938 -18.359375 19.859375 -17.6875 19.359375 -17 C 18.867188 -16.3125 18.425781 -15.609375 18.03125 -14.890625 C 17.445312 -14.097656 16.578125 -12.976562 15.421875 -11.53125 C 14.273438 -10.082031 12.992188 -8.601562 11.578125 -7.09375 C 10.171875 -5.582031 8.773438 -4.300781 7.390625 -3.25 C 6.015625 -2.195312 4.832031 -1.671875 3.84375 -1.671875 C 2.46875 -1.671875 1.300781 -2.375 0.34375 -3.78125 C -0.601562 -5.195312 -0.75 -6.757812 -0.09375 -8.46875 C 0.101562 -8.9375 0.492188 -9.875 1.078125 -11.28125 C 1.671875 -12.695312 2.378906 -14.304688 3.203125 -16.109375 C 4.023438 -17.921875 4.847656 -19.679688 5.671875 -21.390625 C 6.492188 -23.097656 7.25 -24.507812 7.9375 -25.625 C 8.625 -26.738281 9.132812 -27.296875 9.46875 -27.296875 C 9.59375 -27.296875 9.769531 -27.265625 10 -27.203125 C 10.226562 -27.140625 10.476562 -27.039062 10.75 -26.90625 C 11.46875 -26.582031 12.1875 -26.125 12.90625 -25.53125 C 13.632812 -24.9375 13.734375 -24.144531 13.203125 -23.15625 L 13.109375 -22.96875 C 11.921875 -21.1875 10.753906 -19.273438 9.609375 -17.234375 C 8.460938 -15.203125 7.394531 -13.203125 6.40625 -11.234375 C 6.269531 -10.972656 5.957031 -10.300781 5.46875 -9.21875 C 4.976562 -8.132812 4.582031 -7.066406 4.28125 -6.015625 C 3.988281 -4.960938 4.039062 -4.304688 4.4375 -4.046875 C 4.5 -3.972656 4.5625 -3.9375 4.625 -3.9375 C 4.894531 -3.9375 5.359375 -4.132812 6.015625 -4.53125 C 8.703125 -6.632812 11.128906 -9.03125 13.296875 -11.71875 C 15.472656 -14.414062 17.578125 -17.144531 19.609375 -19.90625 C 19.679688 -20.039062 19.734375 -20.109375 19.765625 -20.109375 C 19.796875 -20.109375 19.8125 -20.109375 19.8125 -20.109375 Z M 19.8125 -20.109375 "/></g></g></g><g fill="#fea116" fill-opacity="1"><g transform="translate(308.239841, 83.478897)"><g><path d="M 18.234375 -7.296875 C 19.421875 -7.296875 20.601562 -7.722656 21.78125 -8.578125 C 22.96875 -9.429688 24.050781 -10.414062 25.03125 -11.53125 C 26.019531 -12.644531 26.84375 -13.628906 27.5 -14.484375 C 28.351562 -15.472656 29.140625 -16.472656 29.859375 -17.484375 C 30.585938 -18.503906 31.3125 -19.539062 32.03125 -20.59375 C 32.6875 -20.59375 33.113281 -20.234375 33.3125 -19.515625 C 32.0625 -17.804688 30.726562 -15.945312 29.3125 -13.9375 C 27.90625 -11.9375 26.394531 -10.066406 24.78125 -8.328125 C 23.175781 -6.585938 21.390625 -5.222656 19.421875 -4.234375 C 19.023438 -4.109375 18.644531 -3.976562 18.28125 -3.84375 C 17.914062 -3.707031 17.539062 -3.640625 17.15625 -3.640625 C 16.882812 -3.640625 16.648438 -3.6875 16.453125 -3.78125 C 16.265625 -3.882812 16.070312 -3.972656 15.875 -4.046875 L 15.578125 -4.046875 C 14.847656 -4.429688 14.039062 -5.21875 13.15625 -6.40625 C 12.269531 -7.59375 11.460938 -8.875 10.734375 -10.25 C 10.015625 -11.625 9.457031 -12.742188 9.0625 -13.609375 C 8.476562 -12.679688 7.773438 -11.476562 6.953125 -10 C 6.128906 -8.519531 5.335938 -7.054688 4.578125 -5.609375 C 3.828125 -4.171875 3.222656 -2.925781 2.765625 -1.875 C 2.296875 -1.082031 1.867188 -0.6875 1.484375 -0.6875 C 1.148438 -0.6875 0.722656 -0.851562 0.203125 -1.1875 C -0.847656 -1.96875 -1.375 -2.816406 -1.375 -3.734375 C -1.375 -4.660156 -1.273438 -5.679688 -1.078125 -6.796875 C -0.554688 -9.359375 0.390625 -12.414062 1.765625 -15.96875 C 3.148438 -19.519531 4.742188 -23.195312 6.546875 -27 C 8.359375 -30.8125 10.203125 -34.441406 12.078125 -37.890625 C 13.953125 -41.347656 15.644531 -44.289062 17.15625 -46.71875 C 17.613281 -47.570312 18.054688 -48.226562 18.484375 -48.6875 C 18.910156 -49.144531 19.613281 -49.375 20.59375 -49.375 C 22.039062 -49.375 23.191406 -48.894531 24.046875 -47.9375 C 24.898438 -46.988281 25.066406 -46.285156 24.546875 -45.828125 C 23.691406 -45.046875 22.585938 -43.664062 21.234375 -41.6875 C 19.890625 -39.71875 18.410156 -37.351562 16.796875 -34.59375 C 15.191406 -31.832031 13.582031 -28.890625 11.96875 -25.765625 C 10.363281 -22.648438 8.851562 -19.546875 7.4375 -16.453125 C 6.03125 -13.367188 4.863281 -10.515625 3.9375 -7.890625 C 6.300781 -11.890625 8.566406 -15.644531 10.734375 -19.15625 C 12.910156 -22.675781 15.609375 -26.179688 18.828125 -29.671875 C 19.347656 -30.191406 20.066406 -30.910156 20.984375 -31.828125 C 21.910156 -32.753906 22.769531 -33.179688 23.5625 -33.109375 C 24.082031 -33.109375 24.6875 -32.878906 25.375 -32.421875 C 26.070312 -31.960938 26.484375 -31.375 26.609375 -30.65625 C 26.742188 -29.40625 26.460938 -27.875 25.765625 -26.0625 C 25.078125 -24.257812 24.09375 -22.503906 22.8125 -20.796875 C 21.53125 -19.085938 20.050781 -17.675781 18.375 -16.5625 C 16.707031 -15.445312 14.984375 -14.890625 13.203125 -14.890625 C 13.597656 -14.035156 14.054688 -13.015625 14.578125 -11.828125 C 15.109375 -10.640625 15.6875 -9.617188 16.3125 -8.765625 C 16.9375 -7.910156 17.578125 -7.421875 18.234375 -7.296875 Z M 22.46875 -30.0625 C 22.070312 -29.863281 21.363281 -29.171875 20.34375 -27.984375 C 19.332031 -26.804688 18.234375 -25.460938 17.046875 -23.953125 C 15.867188 -22.441406 14.816406 -21.0625 13.890625 -19.8125 C 12.972656 -18.5625 12.382812 -17.773438 12.125 -17.453125 L 12.21875 -17.046875 L 12.515625 -17.046875 C 13.429688 -17.046875 14.460938 -17.570312 15.609375 -18.625 C 16.765625 -19.675781 17.882812 -20.957031 18.96875 -22.46875 C 20.050781 -23.976562 20.921875 -25.441406 21.578125 -26.859375 C 22.242188 -28.273438 22.539062 -29.34375 22.46875 -30.0625 Z M 22.46875 -30.0625 "/></g></g></g><g fill="#fea116" fill-opacity="1"><g transform="translate(333.274583, 83.478897)"><g><path d="M 18.828125 -7.6875 C 19.023438 -7.488281 19.222656 -7.390625 19.421875 -7.390625 C 19.941406 -7.390625 20.644531 -7.800781 21.53125 -8.625 C 22.414062 -9.445312 23.382812 -10.484375 24.4375 -11.734375 C 25.488281 -12.984375 26.507812 -14.25 27.5 -15.53125 C 28.488281 -16.8125 29.3125 -17.910156 29.96875 -18.828125 C 30.625 -19.742188 30.984375 -20.269531 31.046875 -20.40625 C 31.441406 -20.40625 31.738281 -20.351562 31.9375 -20.25 C 32.132812 -20.15625 32.296875 -19.84375 32.421875 -19.3125 C 31.960938 -18.59375 31.15625 -17.378906 30 -15.671875 C 28.851562 -13.960938 27.539062 -12.171875 26.0625 -10.296875 C 24.59375 -8.421875 23.066406 -6.8125 21.484375 -5.46875 C 19.910156 -4.125 18.46875 -3.453125 17.15625 -3.453125 C 16.363281 -3.453125 15.640625 -3.78125 14.984375 -4.4375 C 13.992188 -5.351562 13.484375 -6.550781 13.453125 -8.03125 C 13.421875 -9.507812 13.503906 -10.90625 13.703125 -12.21875 C 13.765625 -12.414062 13.796875 -12.613281 13.796875 -12.8125 C 12.804688 -11.238281 11.769531 -9.613281 10.6875 -7.9375 C 9.601562 -6.257812 8.550781 -4.78125 7.53125 -3.5 C 6.519531 -2.21875 5.550781 -1.378906 4.625 -0.984375 C 4.5625 -0.984375 4.476562 -0.96875 4.375 -0.9375 C 4.28125 -0.90625 4.171875 -0.890625 4.046875 -0.890625 C 3.773438 -0.890625 3.523438 -0.9375 3.296875 -1.03125 C 3.066406 -1.132812 2.789062 -1.25 2.46875 -1.375 C 0.882812 -2.101562 -0.00390625 -3.367188 -0.203125 -5.171875 C -0.398438 -6.984375 -0.140625 -9.070312 0.578125 -11.4375 C 1.304688 -13.800781 2.3125 -16.179688 3.59375 -18.578125 C 4.875 -20.972656 6.238281 -23.15625 7.6875 -25.125 C 9.132812 -27.101562 10.445312 -28.582031 11.625 -29.5625 C 13.007812 -30.75 14.226562 -31.34375 15.28125 -31.34375 C 15.800781 -31.34375 16.273438 -31.226562 16.703125 -31 C 17.128906 -30.769531 17.472656 -30.488281 17.734375 -30.15625 C 18.859375 -28.976562 19.382812 -27.648438 19.3125 -26.171875 C 19.25 -24.691406 19.019531 -23.226562 18.625 -21.78125 C 19.15625 -21.976562 19.582031 -22.078125 19.90625 -22.078125 C 21.019531 -22.078125 22.039062 -21.519531 22.96875 -20.40625 C 23.289062 -20.070312 23.453125 -19.835938 23.453125 -19.703125 C 23.453125 -19.578125 23.253906 -19.382812 22.859375 -19.125 C 21.878906 -18.332031 21.078125 -17.046875 20.453125 -15.265625 C 19.828125 -13.492188 19.414062 -12.019531 19.21875 -10.84375 C 18.757812 -9.332031 18.628906 -8.28125 18.828125 -7.6875 Z M 14.78125 -24.4375 C 13.800781 -23.382812 12.71875 -21.875 11.53125 -19.90625 C 10.34375 -17.9375 9.238281 -15.882812 8.21875 -13.75 C 7.207031 -11.613281 6.4375 -9.753906 5.90625 -8.171875 C 5.382812 -6.597656 5.289062 -5.648438 5.625 -5.328125 C 6.144531 -5.328125 6.929688 -6.046875 7.984375 -7.484375 C 9.035156 -8.929688 10.234375 -10.65625 11.578125 -12.65625 C 12.929688 -14.664062 14.195312 -16.492188 15.375 -18.140625 C 15.632812 -18.660156 15.894531 -19.148438 16.15625 -19.609375 C 16.425781 -20.066406 16.789062 -20.460938 17.25 -20.796875 C 17.644531 -24.015625 17.445312 -25.625 16.65625 -25.625 C 16.394531 -25.625 16.113281 -25.507812 15.8125 -25.28125 C 15.519531 -25.050781 15.175781 -24.769531 14.78125 -24.4375 Z M 14.78125 -24.4375 "/></g></g></g><g clip-path="url(#036de4082f)"><path fill="#fea116" d="M 239.746094 10.582031 C 240.039062 12.058594 239.304688 13.578125 238.242188 14.640625 C 237.179688 15.707031 235.820312 16.410156 234.523438 17.167969 C 233.226562 17.925781 231.929688 18.792969 231.117188 20.054688 C 230.40625 21.152344 230.117188 22.472656 229.96875 23.769531 C 229.78125 25.347656 229.808594 27 230.308594 28.484375 C 230.671875 27.589844 231.148438 26.734375 231.6875 25.933594 C 232.75 24.359375 234.058594 22.96875 235.359375 21.585938 C 236.878906 19.972656 238.398438 18.363281 239.917969 16.75 C 238.34375 19.699219 235.90625 22.078125 233.84375 24.707031 C 231.785156 27.34375 230.027344 30.488281 230.21875 33.824219 C 230.371094 32.117188 231.757812 30.761719 233.261719 29.933594 C 234.765625 29.109375 236.453125 28.648438 237.933594 27.785156 C 240.738281 26.152344 242.625 23.042969 242.769531 19.800781 C 242.917969 16.523438 241.421875 13.402344 239.746094 10.582031 Z M 239.746094 10.582031 " fill-opacity="1" fill-rule="nonzero"/></g><g clip-path="url(#4333478b02)"><g clip-path="url(#2f5ef35fc8)"><path fill="#ffffff" d="M 229.148438 11.996094 L 229.148438 29.609375 L 219.199219 29.609375 L 219.199219 11.996094 Z M 229.148438 11.996094 " fill-opacity="1" fill-rule="nonzero"/></g></g></svg>