<svg xmlns="http://www.w3.org/2000/svg" xmlns:xlink="http://www.w3.org/1999/xlink" width="500" zoomAndPan="magnify" viewBox="0 0 375 374.999991" height="500" preserveAspectRatio="xMidYMid meet" version="1.0"><defs><clipPath id="f3a48afe25"><path d="M 122 52.664062 L 302 52.664062 L 302 258 L 122 258 Z M 122 52.664062 " clip-rule="nonzero"/></clipPath><clipPath id="52b2c4bf77"><path d="M 282 71 L 365.484375 71 L 365.484375 191 L 282 191 Z M 282 71 " clip-rule="nonzero"/></clipPath></defs><path fill="#f7d73b" d="M 218.054688 206.632812 C 219.375 206.851562 220.707031 207.109375 222.015625 207.410156 C 226.269531 208.324219 230.421875 209.582031 234.441406 211.171875 C 236.582031 208.171875 239.039062 205.398438 241.78125 202.882812 C 243.257812 201.539062 244.8125 200.253906 246.453125 199.085938 C 241.796875 196.597656 236.214844 195.824219 230.722656 197.292969 C 225.265625 198.753906 220.851562 202.191406 218.054688 206.632812 Z M 218.054688 206.632812 " fill-opacity="1" fill-rule="nonzero"/><path fill="#f7d73b" d="M 257.625 192.929688 C 259.582031 192.128906 261.59375 191.449219 263.675781 190.894531 C 264.691406 190.621094 265.695312 190.390625 266.707031 190.179688 C 266.453125 189.890625 266.179688 189.609375 265.890625 189.351562 C 255.789062 179 240.550781 174.253906 225.621094 178.253906 C 211.945312 181.917969 201.6875 192.074219 197.296875 204.53125 C 197.117188 205.03125 196.960938 205.550781 196.800781 206.066406 C 199.796875 205.738281 202.777344 205.589844 205.75 205.625 C 206.335938 204.125 207.058594 202.6875 207.898438 201.335938 C 212.160156 194.148438 219.078125 188.5625 227.757812 186.234375 C 237.417969 183.648438 247.234375 185.636719 254.917969 190.867188 C 255.859375 191.503906 256.773438 192.191406 257.625 192.929688 Z M 257.625 192.929688 " fill-opacity="1" fill-rule="nonzero"/><path fill="#f7d73b" d="M 224.613281 239.585938 C 219.476562 237.386719 213.960938 236.039062 208.265625 235.730469 C 205.234375 235.535156 202.136719 235.632812 199.03125 236.050781 C 196.910156 236.324219 194.769531 236.738281 192.648438 237.308594 C 190.972656 237.757812 189.335938 238.292969 187.757812 238.894531 C 175.859375 243.445312 166.59375 252.289062 161.285156 263.136719 C 174.941406 262.5 190.609375 260.433594 206.796875 257.082031 C 212.789062 255.855469 218.964844 254.417969 225.152344 252.816406 L 225.667969 252.679688 C 226.761719 252.40625 227.757812 252.140625 228.734375 251.878906 L 228.828125 251.851562 C 231.425781 251.15625 234.019531 250.441406 236.582031 249.675781 C 237.410156 249.453125 238.234375 249.214844 239.015625 248.964844 C 238.140625 248.132812 237.222656 247.351562 236.289062 246.59375 C 232.734375 243.730469 228.800781 241.367188 224.613281 239.585938 Z M 224.613281 239.585938 " fill-opacity="1" fill-rule="nonzero"/><path fill="#f7d73b" d="M 250.605469 234.421875 C 249.195312 233.136719 247.703125 231.917969 246.195312 230.78125 C 243.945312 229.09375 241.589844 227.53125 239.160156 226.128906 C 235.84375 224.230469 232.382812 222.589844 228.789062 221.261719 C 224.25 219.59375 219.523438 218.390625 214.691406 217.691406 C 210.941406 217.175781 207.113281 216.976562 203.25 217.082031 C 200.511719 217.183594 197.753906 217.429688 194.980469 217.855469 C 192.59375 218.238281 190.21875 218.734375 187.84375 219.371094 C 186.40625 219.757812 184.980469 220.199219 183.585938 220.671875 C 163.15625 227.585938 147.964844 243.589844 141.320312 262.875 C 143.019531 263.03125 144.90625 263.136719 147.101562 263.222656 C 147.644531 263.253906 148.179688 263.269531 148.738281 263.277344 C 154.808594 247.308594 167.535156 234.117188 184.441406 227.910156 C 186.148438 227.273438 187.894531 226.726562 189.683594 226.246094 C 191.636719 225.722656 193.578125 225.304688 195.527344 224.980469 C 198.292969 224.535156 201.046875 224.269531 203.789062 224.1875 C 207.851562 224.085938 211.882812 224.386719 215.808594 225.097656 C 219.457031 225.738281 222.996094 226.707031 226.4375 227.976562 C 230.105469 229.34375 233.644531 231.0625 236.960938 233.117188 C 239.511719 234.667969 241.953125 236.402344 244.242188 238.320312 C 244.3125 238.28125 244.402344 238.253906 244.472656 238.21875 C 244.457031 238.300781 244.457031 238.378906 244.445312 238.480469 C 246.863281 240.5 249.140625 242.734375 251.207031 245.144531 C 251.84375 244.933594 252.496094 244.71875 253.132812 244.511719 C 253.839844 244.28125 254.472656 244.054688 255.082031 243.832031 C 256.242188 243.441406 257.34375 243.046875 258.40625 242.664062 C 257.578125 241.640625 256.734375 240.625 255.835938 239.636719 C 254.199219 237.804688 252.449219 236.058594 250.605469 234.421875 Z M 250.605469 234.421875 " fill-opacity="1" fill-rule="nonzero"/><g clip-path="url(#f3a48afe25)"><path fill="#f7d73b" d="M 166.429688 215.84375 C 171.988281 212.695312 177.996094 210.195312 184.417969 208.4375 C 188.097656 189.136719 202.4375 172.613281 222.65625 167.195312 C 240.960938 162.289062 259.671875 167.6875 272.546875 179.824219 L 301.699219 125.765625 C 299.679688 121.765625 297.402344 117.910156 294.914062 114.230469 C 287.476562 103.273438 272.253906 87.5625 259.179688 84.320312 C 259.179688 84.320312 261.070312 86.195312 261.613281 86.738281 C 267.800781 92.9375 273.445312 100.988281 271.980469 110.207031 C 270.390625 120.179688 261.144531 128.375 251.054688 128.753906 C 242.777344 129.066406 234.777344 124.53125 229.648438 118.027344 C 224.519531 111.519531 222.007812 103.261719 221.171875 95.019531 C 219.679688 80.324219 223.332031 65.160156 231.351562 52.757812 C 217.792969 56.605469 203.972656 60.875 192.789062 69.457031 C 184.628906 75.722656 177.941406 84.785156 175.847656 94.992188 C 173.789062 105.027344 180.859375 112.066406 183.433594 121.503906 C 186.703125 133.503906 179.117188 149.617188 167.355469 136.355469 C 157.558594 125.308594 145.234375 117.570312 127.265625 120.035156 C 142.398438 126.667969 155.230469 161.4375 135 187.894531 C 126.734375 198.703125 122.117188 212.664062 122.398438 226.695312 C 122.632812 238.324219 125.550781 248.921875 131.042969 257.625 C 133.367188 251.253906 136.507812 245.214844 140.367188 239.640625 C 147.050781 230.003906 155.898438 221.808594 166.429688 215.84375 Z M 166.429688 215.84375 " fill-opacity="1" fill-rule="nonzero"/></g><path fill="#f7d73b" d="M 313.453125 162.996094 L 293.636719 191.675781 C 297.902344 193.0625 301.953125 194.980469 305.714844 197.371094 C 308 198.832031 310.183594 200.480469 312.1875 202.292969 C 315.015625 189.464844 315.324219 176.027344 313.453125 162.996094 Z M 313.453125 162.996094 " fill-opacity="1" fill-rule="nonzero"/><path fill="#f7d73b" d="M 286.410156 201.554688 C 282.328125 200.632812 278.074219 200.3125 273.753906 200.699219 C 271.394531 200.894531 269.019531 201.316406 266.640625 201.953125 C 266.199219 202.070312 265.757812 202.191406 265.339844 202.339844 C 261.574219 203.46875 258.085938 205.113281 254.917969 207.167969 C 251.058594 209.644531 247.71875 212.730469 244.925781 216.246094 C 247.332031 217.636719 249.65625 219.148438 251.910156 220.777344 C 253.605469 218.703125 255.558594 216.855469 257.734375 215.242188 C 260.855469 212.945312 264.425781 211.160156 268.359375 210.066406 C 268.503906 210.007812 268.632812 209.972656 268.777344 209.933594 C 271.378906 209.238281 273.988281 208.875 276.558594 208.816406 C 280.71875 208.710938 284.777344 209.402344 288.5625 210.777344 C 294.515625 212.9375 299.785156 216.757812 303.664062 221.863281 L 306.433594 220.113281 L 306.453125 220.109375 C 307.234375 218.378906 307.925781 216.613281 308.589844 214.8125 C 302.796875 208.167969 294.992188 203.503906 286.410156 201.554688 Z M 286.410156 201.554688 " fill-opacity="1" fill-rule="nonzero"/><path fill="#f7d73b" d="M 277.589844 220.253906 C 275.667969 220.238281 273.695312 220.46875 271.742188 220.992188 C 270.859375 221.230469 270.007812 221.515625 269.1875 221.855469 C 265.785156 223.242188 262.875 225.421875 260.65625 228.132812 C 262.394531 229.820312 264.050781 231.585938 265.640625 233.453125 C 267.015625 235.058594 268.332031 236.722656 269.566406 238.449219 C 270.066406 238.253906 270.480469 238.105469 270.710938 238.003906 C 274.742188 236.390625 278.835938 234.640625 282.847656 232.796875 C 286.488281 231.128906 290.082031 229.355469 293.527344 227.542969 C 292.160156 225.972656 290.578125 224.640625 288.824219 223.546875 C 285.503906 221.472656 281.613281 220.304688 277.589844 220.253906 Z M 277.589844 220.253906 " fill-opacity="1" fill-rule="nonzero"/><path fill="#215ba3" d="M 319.875 189.761719 C 319.605469 192.957031 319.171875 196.132812 318.605469 199.25 C 326.644531 201.164062 329.292969 203.753906 329.539062 204.675781 C 329.792969 205.617188 328.777344 209.207031 322.726562 214.9375 C 320.472656 217.0625 317.523438 219.472656 313.679688 222.160156 C 311.636719 223.597656 309.332031 225.105469 306.734375 226.691406 C 306.648438 226.734375 306.558594 226.777344 306.476562 226.835938 C 303.421875 228.703125 300.179688 230.539062 296.75 232.328125 C 293.097656 234.257812 289.257812 236.152344 285.230469 238.003906 C 281.253906 239.820312 277.125 241.597656 272.828125 243.320312 C 271.023438 244.042969 269.199219 244.75 267.359375 245.476562 C 265.566406 246.15625 263.75 246.820312 261.90625 247.472656 C 260.292969 248.082031 258.667969 248.65625 257.003906 249.222656 C 256.335938 249.460938 255.648438 249.703125 254.960938 249.925781 C 252.058594 250.902344 249.117188 251.867188 246.125 252.789062 C 245.21875 253.089844 244.308594 253.375 243.390625 253.640625 C 241.671875 254.160156 239.957031 254.679688 238.207031 255.167969 C 235.613281 255.941406 232.960938 256.671875 230.308594 257.382812 C 229.257812 257.664062 228.207031 257.945312 227.152344 258.207031 L 226.578125 258.359375 C 220.296875 259.984375 214.085938 261.433594 207.964844 262.695312 C 190.332031 266.335938 173.558594 268.476562 158.847656 268.941406 C 155.484375 269.074219 152.210938 269.082031 149.070312 269.015625 C 148.3125 269 147.578125 268.980469 146.878906 268.949219 C 144.242188 268.847656 141.832031 268.703125 139.640625 268.480469 C 137.375 268.277344 135.324219 267.996094 133.46875 267.703125 C 132.3125 267.519531 131.230469 267.316406 130.246094 267.105469 C 129.550781 266.953125 128.914062 266.789062 128.300781 266.636719 C 120.800781 264.738281 118.277344 262.25 118.035156 261.347656 C 117.960938 261.074219 118.011719 260.527344 118.277344 259.742188 C 118.757812 258.371094 119.941406 256.296875 122.414062 253.578125 C 120.992188 250.421875 119.828125 247.101562 118.949219 243.601562 L 24.371094 185.910156 C 20.789062 183.75 16.132812 184.957031 14.0625 188.574219 L 11.277344 193.371094 C 9.199219 196.96875 10.480469 201.605469 14.140625 203.625 L 109.617188 255.742188 C 108.425781 258.589844 108.140625 261.292969 108.816406 263.820312 C 109.035156 264.628906 109.339844 265.398438 109.753906 266.136719 C 110.1875 266.789062 110.644531 267.460938 111.113281 268.101562 C 115.5625 274.398438 120.621094 280.214844 126.179688 285.480469 C 130.0625 289.140625 134.175781 292.542969 138.503906 295.652344 C 141.269531 297.636719 144.105469 299.523438 147.042969 301.265625 C 152.035156 304.273438 157.269531 306.921875 162.683594 309.203125 C 187.335938 319.589844 215.804688 322.253906 244.144531 314.996094 C 244.644531 314.878906 245.144531 314.746094 245.640625 314.613281 C 250.800781 313.230469 255.804688 311.554688 260.636719 309.609375 C 263.796875 308.347656 266.867188 306.96875 269.867188 305.496094 C 274.609375 303.136719 279.167969 300.535156 283.496094 297.675781 C 285.71875 296.230469 287.875 294.703125 289.980469 293.113281 C 307.90625 279.65625 321.734375 261.886719 330.132812 241.914062 C 334.792969 230.847656 337.792969 219.117188 338.910156 207.066406 C 338.996094 206.273438 339.054688 205.464844 339.101562 204.683594 C 339.09375 203.835938 338.972656 203.019531 338.757812 202.207031 C 337.167969 196.269531 330.402344 192.117188 319.875 189.761719 Z M 319.875 189.761719 " fill-opacity="1" fill-rule="nonzero"/><path fill="#215ba3" d="M 279.710938 188.136719 L 307.941406 140.429688 L 350.472656 68.621094 C 351.097656 67.566406 350.738281 66.222656 349.691406 65.632812 L 344.6875 62.804688 C 343.636719 62.199219 342.300781 62.59375 341.714844 63.660156 L 304.730469 132.203125 L 276.679688 184.1875 C 277.71875 185.414062 278.691406 186.691406 279.617188 188.003906 C 279.648438 188.054688 279.679688 188.085938 279.710938 188.136719 Z M 279.710938 188.136719 " fill-opacity="1" fill-rule="nonzero"/><g clip-path="url(#52b2c4bf77)"><path fill="#215ba3" d="M 364.476562 75.164062 L 359.695312 72 C 358.683594 71.320312 357.320312 71.609375 356.664062 72.632812 L 309.898438 146.484375 L 282.730469 189.382812 C 284.421875 189.5625 286.085938 189.808594 287.738281 190.15625 L 312.023438 155.003906 L 312.019531 154.984375 L 365.066406 78.1875 C 365.75 77.191406 365.480469 75.824219 364.476562 75.164062 Z M 364.476562 75.164062 " fill-opacity="1" fill-rule="nonzero"/></g></svg>